<svg xmlns="http://www.w3.org/2000/svg" width="24" height="24" viewBox="0 0 24 24"><g fill="none" fill-rule="evenodd"><rect width="24" height="24"></rect><g fill-rule="nonzero" transform="translate(2 2)"><path fill="#CE1126" d="M1.7250736e-07,10 L19.9999998,10 C19.9999999,10.0006498 20,10.0012995 20,10.0019493 C20,15.4581602 15.6314203,19.8937577 10.1994901,20 L9.80052597,20 C4.36975055,19.8937721 0,15.4593509 0,10.0019493 C0,10.0012995 6.19583851e-08,10.0006498 1.85869573e-07,10 Z"></path><path fill="#0038A8" d="M1.85869599e-07,10 C0.00105324174,4.47804837 4.47658811,0.00194931774 10,0.00194931774 C15.5221979,0.00194931774 19.9989467,4.47683456 19.9999998,10 L1.72507388e-07,10 Z"></path><path fill="#FFF" d="M3.74204996,2.20120586 L17,10 L3.73926787,17.8004307 C1.45926355,15.9677877 0,13.1556789 0,10.0019493 C0,6.84739586 1.46027201,4.03399973 3.74204996,2.20120586 Z"></path><path fill="#FCD116" d="M5.36604085,11.1536182 C5.1974925,10.9153249 5.07975896,10.6385387 5.02861824,10.3390376 L3.55306191,10.6666667 L3.3730563,10.4658635 L5.01261191,10.2258606 C5.00847141,10.189021 5.00533166,10.1518787 5.00322048,10.1144614 L3.22044444,10.2459143 L3,10 L3.22044444,9.75408571 L5.00322053,9.88553864 C5.00533172,9.84812132 5.00847148,9.81097898 5.01261199,9.77413945 L3.3730563,9.53413655 L3.55306191,9.33333333 L5.02861837,9.66096244 C5.07975919,9.36146138 5.19749281,9.08467526 5.36604121,8.8463821 L4.11111111,8.04748008 L4.12571678,7.78004691 L5.43480691,8.75481871 C5.45808348,8.72559854 5.48216126,8.69704495 5.50700688,8.66919106 L4.17300621,7.51840597 L4.19089309,7.19089309 L4.51840597,7.17300621 L5.66919105,8.50700687 C5.69704494,8.48216125 5.72559853,8.45808347 5.75481859,8.43480676 L4.78004691,7.12571678 L5.04748008,7.11111111 L5.84638229,8.3660415 C6.08467525,8.19749275 6.36146137,8.07975912 6.66096243,8.02861832 L6.33333333,6.55306191 L6.53413655,6.3730563 L6.77413945,8.01261196 C6.81097898,8.00847145 6.84812131,8.00533169 6.88553863,8.00322051 L6.75408571,6.22044444 L7,6 L7.24591429,6.22044444 L7.11446137,8.00322051 C7.15187869,8.00533169 7.18902102,8.00847145 7.22586055,8.01261196 L7.46586345,6.3730563 L7.66666667,6.55306191 L7.33903757,8.02861832 C7.63853863,8.07975912 7.91532475,8.19749275 8.15361792,8.36604118 L8.95251992,7.11111111 L9.21995309,7.12571678 L8.2451813,8.43480689 C8.27440147,8.45808347 8.30295506,8.48216125 8.33080895,8.50700687 L9.48159403,7.17300621 L9.80910691,7.19089309 L9.82699379,7.51840597 L8.49299312,8.66919106 C8.51783874,8.69704495 8.54191652,8.72559854 8.56519322,8.7548186 L9.87428322,7.78004691 L9.88888889,8.04748008 L8.63395847,8.84638231 C8.80250719,9.08467526 8.92024081,9.36146138 8.97138163,9.66096244 L10.4469381,9.33333333 L10.6269437,9.53413655 L8.98738801,9.77413945 C8.99152852,9.81097898 8.99466828,9.84812132 8.99677947,9.88553864 L10.7795556,9.75408571 L11,10 L10.7795556,10.2459143 L8.99677952,10.1144614 C8.99466834,10.1518787 8.99152859,10.189021 8.98738809,10.2258606 L10.6269437,10.4658635 L10.4469381,10.6666667 L8.97138176,10.3390376 C8.92024104,10.6385387 8.8025075,10.9153249 8.63395915,11.1536182 L9.88888889,11.9525199 L9.87428322,12.2199531 L8.56519348,11.2451816 C8.54191691,11.2744018 8.51783913,11.3029554 8.49299352,11.3308093 L9.82699379,12.481594 L9.80910691,12.8091069 L9.48159403,12.8269938 L8.33080933,11.4929936 C8.30295544,11.5178392 8.27440184,11.541917 8.24518177,11.5651937 L9.21995309,12.8742832 L8.95251992,12.8888889 L8.15361804,11.633959 C7.91532509,11.8025079 7.63853889,11.9202416 7.33903774,11.9713824 L7.66666667,13.4469381 L7.46586345,13.6269437 L7.22586066,11.9873888 C7.18902112,11.9915293 7.15187876,11.9946691 7.11446142,11.9967803 L7.24591429,13.7795556 L7,14 L6.75408571,13.7795556 L6.88553858,11.9967803 C6.84812124,11.9946691 6.81097888,11.9915293 6.77413934,11.9873888 L6.53413655,13.6269437 L6.33333333,13.4469381 L6.66096226,11.9713824 C6.36146111,11.9202416 6.08467491,11.8025079 5.84638171,11.6339593 L5.04748008,12.8888889 L4.78004691,12.8742832 L5.75481823,11.5651937 C5.72559816,11.541917 5.69704456,11.5178392 5.66919067,11.4929936 L4.51840597,12.8269938 L4.19089309,12.8091069 L4.17300621,12.481594 L5.50700648,11.3308093 C5.48216087,11.3029554 5.45808309,11.2744018 5.43480638,11.2451817 L4.12571678,12.2199531 L4.11111111,11.9525199 L5.36604118,11.1536179 Z M13,10.6179563 L13.4521835,10 L13,9.38204373 L13.7577667,9.6000841 L14.236042,9 L14.2521835,9.75273339 L15,10 L14.2521835,10.2472666 L14.236042,11 L13.7577667,10.3999159 L13,10.6179563 Z M3.93985225,15 L4.24598556,15.6864974 L5,15.6055341 L4.43768976,16.1417587 L4.71557083,16.8416416 L4.06189314,16.4865386 L3.47944084,17 L3.63768976,16.2442426 L3,15.8617437 L3.75160571,15.749882 L3.93985225,15 Z M5,4.39446594 L4.24598556,4.31350258 L3.93985225,5 L3.75160571,4.25011802 L3,4.1382563 L3.63768976,3.75575741 L3.47944084,3 L4.06189314,3.51346137 L4.71557083,3.15835839 L4.43768976,3.85824126 L5,4.39446594 Z"></path></g><circle cx="12" cy="12" r="10" stroke="#ffffff" stroke-width="2"></circle></g></svg>