<svg xmlns="http://www.w3.org/2000/svg" width="24" height="24" viewBox="0 0 24 24"><g fill="none" fill-rule="evenodd"><rect width="24" height="24"></rect><g fill-rule="nonzero" transform="translate(2 2)"><path fill="#FFF" d="M19.9986719,10.1646741 C19.9107538,15.61157 15.4690535,20 10,20 C4.4771525,20 0,15.5240618 0,10 L19.9986719,10 L19.9986719,10.1646741 Z"></path><path fill="#E70011" d="M19.9986719,9.83531251 L19.9986719,10 L0,10 C0,4.4771525 4.47593818,0 10,0 C15.4678587,0 19.9107419,4.38725166 19.9986719,9.83531251 Z"></path><path fill="#FFF" d="M6.82351876,3.11699335 C5.65891618,3.38301953 4.79357945,4.24213774 4.54888952,5.41021322 C4.21649846,6.9971505 5.25408153,8.55096748 6.84999994,8.88264323 C5.23759011,9.34063 3.57141114,8.41720971 3.11593954,6.82561527 C2.66051538,5.2340681 3.58738053,3.57408178 5.18491249,3.12030302 C5.74571562,2.96096627 6.26200378,2.95994973 6.82351876,3.11699335 Z M5.77647686,5.54026487 L5.33333333,5.1839793 L5.88159071,5.17876788 L6.05189199,4.60337054 L6.22563157,5.17734893 L6.77430996,5.17830349 L6.3333183,5.53791715 L6.50233313,6.11375307 L6.05575131,5.76218873 L5.61132134,6.11708115 L5.77647686,5.54026487 Z M6.38297488,7.52318372 L5.93983136,7.16689814 L6.48808873,7.16168672 L6.65839001,6.58628939 L6.83212959,7.16026777 L7.38080798,7.16122234 L6.93981632,7.520836 L7.10883116,8.09667192 L6.66224933,7.74510758 L6.21781937,8.1 L6.38297488,7.52318372 Z M8.40058074,7.50847823 L7.95743721,7.15219265 L8.50569459,7.14698124 L8.67599586,6.5715839 L8.84973544,7.14556229 L9.39841384,7.14651685 L8.95742217,7.50613051 L9.12643701,8.08196643 L8.67985518,7.73040209 L8.23542522,8.08529451 L8.40058074,7.50847823 Z M9.0021669,5.54181282 L8.55902337,5.18552724 L9.10728075,5.18031582 L9.27758203,4.60491849 L9.45132161,5.17889687 L10,5.17985144 L9.55900834,5.5394651 L9.72802318,6.11530102 L9.28144135,5.76373668 L8.83701138,6.1186291 L9.0021669,5.54181282 Z M7.40487611,4.23689433 L6.96173258,3.88060875 L7.50998996,3.87539733 L7.68029124,3.3 L7.85403082,3.87397838 L8.40270921,3.87493295 L7.96171755,4.23454661 L8.13073239,4.81038253 L7.68415056,4.45881819 L7.23972059,4.81371061 L7.40487611,4.23689433 Z"></path></g><circle cx="12" cy="12" r="10" stroke="#ffffff" stroke-width="2"></circle></g></svg>