<svg xmlns="http://www.w3.org/2000/svg" width="135" height="40" fill="none" stroke="currentColor" stroke-linecap="round" stroke-width="0" viewBox="0 0 135 40"><g fill="#010101" stroke="none"><path d="M130.2 40H4.7C2.1 40 0 37.9 0 35.3V4.7C0 2.1 2.1 0 4.7 0h125.5c2.6 0 4.8 2.1 4.8 4.7v30.5c0 2.7-2.2 4.8-4.8 4.8z"/><path d="M134 35.3c0 2.1-1.7 3.8-3.8 3.8H4.7c-2.1 0-3.8-1.7-3.8-3.8V4.7C.9 2.6 2.6.9 4.7.9h125.5c2.1 0 3.8 1.7 3.8 3.8v30.6z"/></g><g fill="#FFF" stroke="none"><path d="m88.9 28.5-.9.8-.6.3c-.6.3-1.2.3-1.8.3-.6 0-1.5 0-2.4-.7-1.3-.9-1.9-2.5-1.9-3.9 0-2.8 2.3-4.2 4.2-4.2.7 0 1.3.2 1.9.5.9.6 1.2 1.4 1.3 1.8l-4.3 1.7-1.4.3c.5 2.3 2 3.7 3.8 3.7.9 0 1.5-.3 2.1-.6 0 0 .1 0 0 0zm-2.6-4.6c.4-.1.5-.2.5-.5 0-.7-.8-1.6-1.8-1.6-.7 0-2.1.6-2.1 2.6 0 .3 0 .6.1 1l3.3-1.5zM79.9 28.4c0 .7.1.8.7.9.3 0 .6.1.9.1l-.7.4h-3.2c.4-.5.5-.6.5-1V17.5h-1.4l1.4-.7h2.6c-.6.3-.7.5-.8 1.2v10.4z"/><path d="M74.9 22.1c.4.3 1.3 1.1 1.3 2.5s-.8 2-1.5 2.6c-.2.2-.5.5-.5.9s.3.6.5.8l.7.5c.8.7 1.5 1.3 1.5 2.6 0 1.7-1.7 3.5-4.8 3.5-2.7 0-3.9-1.3-3.9-2.6 0-.7.3-1.6 1.4-2.2 1.1-.7 2.7-.8 3.5-.8-.3-.3-.6-.7-.6-1.2 0-.3.1-.5.2-.7h-.6c-1.9 0-3-1.5-3-2.9 0-.8.4-1.8 1.2-2.5 1-.9 2.3-1 3.3-1h3.8l-1.4.5h-1.1zm-1.3 8.2h-.4c-.2 0-1.2 0-1.9.3-.4.1-1.6.6-1.6 1.9 0 1.3 1.3 2.2 3.2 2.2 1.8 0 2.7-.8 2.7-2 0-.9-.6-1.4-2-2.4zm.5-3.5c.4-.4.5-1 .5-1.3 0-1.3-.8-3.4-2.3-3.4-.5 0-1 .2-1.3.6-.3.4-.4.9-.4 1.4 0 1.2.7 3.3 2.3 3.3.4-.1.9-.3 1.2-.6zM63.5 30c-2.9 0-4.5-2.3-4.5-4.3 0-2.4 2-4.5 4.7-4.5s4.4 2.1 4.4 4.3c.1 2.2-1.6 4.5-4.6 4.5zm2.3-1.5c.4-.6.6-1.3.6-2 0-1.6-.8-4.7-3-4.7-.6 0-1.2.2-1.7.6-.7.6-.8 1.4-.8 2.2 0 1.8.9 4.8 3.1 4.8.7.1 1.4-.3 1.8-.9zM53.8 30c-2.9 0-4.5-2.3-4.5-4.3 0-2.4 2-4.5 4.7-4.5s4.4 2.1 4.4 4.3c0 2.2-1.6 4.5-4.6 4.5zm2.3-1.5c.4-.6.5-1.3.5-2 0-1.6-.8-4.7-3-4.7-.6 0-1.2.2-1.6.6-.7.6-.8 1.4-.8 2.2 0 1.8.9 4.8 3.1 4.8.6.1 1.3-.3 1.8-.9zM48.1 29.4l-2.5.6c-1 .2-1.9.3-2.8.3-4.7 0-6.5-3.5-6.5-6.2 0-3.3 2.6-6.4 6.9-6.4.9 0 1.8.1 2.6.4 1.3.4 1.9.8 2.3 1.1l-1.4 1.4-.6.1.4-.7c-.6-.6-1.7-1.6-3.7-1.6-2.7 0-4.8 2.1-4.8 5.1 0 3.2 2.3 6.3 6.1 6.3 1.1 0 1.7-.2 2.2-.4v-2.8l-2.6.1 1.4-.7h3.6l-.4.4c-.1.1-.1.1-.2.3v2.7zM94.2 28.6v4.7h-.9V21.4h.9v1.4c.6-.9 1.7-1.6 3-1.6 2.3 0 3.8 1.7 3.8 4.5 0 2.7-1.5 4.5-3.8 4.5-1.2 0-2.3-.6-3-1.6zm5.9-2.9c0-2.1-1.1-3.7-3-3.7-1.2 0-2.3.9-2.8 1.8v3.8c.5.8 1.6 1.8 2.8 1.8 1.9 0 3-1.6 3-3.7zM102.3 30V18.1h.9V30h-.9zM113.7 32.5c.2.1.5.1.8.1.6 0 1-.2 1.3-1.1l.7-1.5-3.7-8.7h1l3.1 7.5 3.1-7.5h1l-4.5 10.5c-.5 1.1-1.2 1.6-2.2 1.6-.3 0-.7-.1-.9-.1l.3-.8zM111 30c-.1-.3-.1-.6-.1-.8v-.7c-.3.5-.8.9-1.3 1.2-.6.3-1.1.5-1.9.5-.9 0-1.6-.2-2.1-.7-.5-.5-.7-1.1-.7-1.8 0-.8.4-1.4 1.1-1.9.7-.5 1.7-.7 2.8-.7h2.2V24c0-.6-.2-1.1-.6-1.5-.4-.4-1-.5-1.8-.5-.7 0-1.3.2-1.7.5-.4.3-.6.7-.6 1.2h-.9c0-.6.3-1.2.9-1.7.6-.5 1.5-.7 2.5-.7s1.8.2 2.4.7c.6.5.9 1.2.9 2.1v4.2c0 .3 0 .6.1.9 0 .3.1.6.2.9H111zm-3.3-.7c.8 0 1.4-.2 1.9-.5.6-.3 1-.8 1.2-1.3v-1.7h-2.2c-.8 0-1.5.2-2.1.6-.5.4-.8.8-.8 1.3s.2.9.5 1.2c.4.3.9.4 1.5.4z"/></g><path fill="none" stroke="none" d="m24.2 25.2 3-3-3 3-9.5-9.5 9.5 9.5-9.5 9.5 9.5-9.5 3 3z"/><linearGradient id="google_play_svg_1" x1="500.112" x2="487.572" y1="-486.578" y2="-494.426" gradientTransform="rotate(45.001 -355.734 -807.97)" gradientUnits="userSpaceOnUse"><stop offset="0" style="stop-color:#d7e69d"/><stop offset=".446" style="stop-color:#94c4aa"/><stop offset="1" style="stop-color:#01a4b6"/></linearGradient><path fill="url(#google_play_svg_1)" stroke="none" d="m27.2 22.2-11.6-6.4c-.3-.2-.6-.2-.9-.1l9.5 9.5 3-3z"/><linearGradient id="google_play_svg_2" x1="492.821" x2="509.08" y1="-493.282" y2="-489.032" gradientTransform="rotate(45.001 -355.734 -807.97)" gradientUnits="userSpaceOnUse"><stop offset="0" style="stop-color:#ed277b"/><stop offset=".019" style="stop-color:#ee2f7c"/><stop offset=".704" style="stop-color:#f7bd81"/><stop offset="1" style="stop-color:#feeb74"/></linearGradient><path fill="url(#google_play_svg_2)" stroke="none" d="m27.2 28.2 4-2.2c.8-.4.8-1.2 0-1.6l-4-2.2-3 3 3 3z"/><linearGradient id="google_play_svg_3" x1="501.898" x2="484.267" y1="-480.625" y2="-490.998" gradientTransform="rotate(45.001 -355.734 -807.97)" gradientUnits="userSpaceOnUse"><stop offset="0" style="stop-color:#89cfbd"/><stop offset=".091" style="stop-color:#7dbebb"/><stop offset=".54" style="stop-color:#457cac"/><stop offset=".852" style="stop-color:#1c5aa2"/><stop offset="1" style="stop-color:#084d9f"/></linearGradient><path fill="url(#google_play_svg_3)" stroke="none" d="M14.7 15.7c-.4.1-.6.5-.6 1v17c0 .5.2.9.6 1l9.5-9.5-9.5-9.5z"/><linearGradient id="google_play_svg_4" x1="508.299" x2="497.443" y1="-488.861" y2="-474.559" gradientTransform="rotate(45.001 -355.734 -807.97)" gradientUnits="userSpaceOnUse"><stop offset="0" style="stop-color:#f04a2b"/><stop offset=".47" style="stop-color:#b54f6b"/><stop offset=".835" style="stop-color:#8b5191"/><stop offset="1" style="stop-color:#7851a1"/></linearGradient><path fill="url(#google_play_svg_4)" stroke="none" d="M14.7 34.7c.2.1.6 0 .9-.1l11.6-6.4-3-3-9.5 9.5z"/><g fill="#FFF" stroke="none"><path d="M36.3 8.4c0-1.8 1.4-3 3-3 1.1 0 1.9.5 2.3 1.2l-.8.5c-.3-.4-.9-.8-1.5-.8-1.1 0-2 .9-2 2.1 0 1.2.9 2.1 2 2.1.6 0 1.1-.3 1.4-.5v-.9H39v-.9h2.7v2.2c-.6.6-1.4 1.1-2.4 1.1-1.7-.1-3-1.3-3-3.1zM43 11.3V5.5h4v.9h-3v1.5h2.9v.9H44v1.6h3v.9h-4zM49.7 11.3V6.4H48v-.9h4.5v.9h-1.8v4.9h-1zM56.1 11.3V5.5h1v5.8h-1zM59.9 11.3V6.4h-1.8v-.9h4.5v.9h-1.8v4.9h-.9zM66 8.4c0-1.7 1.2-3 3-3 1.7 0 3 1.3 3 3s-1.2 3-3 3-3-1.3-3-3zm4.9 0c0-1.2-.8-2.1-1.9-2.1-1.2 0-1.9.9-1.9 2.1 0 1.2.7 2.1 1.9 2.1 1.1 0 1.9-.9 1.9-2.1zM77.1 11.3l-3-4.1v4.1h-1V5.5h1l3 4v-4h1v5.8h-1z"/></g></svg>